<?xml version="1.0" encoding="UTF-8"?>
<svg xmlns="http://www.w3.org/2000/svg" xmlns:xlink="http://www.w3.org/1999/xlink" width="408pt" height="292pt" viewBox="0 0 408 292" version="1.1">
<g id="surface6">
<rect x="0" y="0" width="408" height="292" style="fill:rgb(100%,100%,100%);fill-opacity:1;stroke:none;"/>
<path style="fill:none;stroke-width:1.066978;stroke-linecap:butt;stroke-linejoin:round;stroke:rgb(0%,0%,0%);stroke-opacity:1;stroke-miterlimit:10;" d="M 18.546875 278.636719 L 22.253906 278.605469 L 25.964844 278.558594 L 29.671875 278.5 L 33.382812 278.421875 L 37.089844 278.320312 L 40.800781 278.1875 L 44.507812 278.011719 L 48.21875 277.789062 L 51.925781 277.503906 L 55.636719 277.140625 L 59.34375 276.683594 L 63.054688 276.113281 L 66.761719 275.40625 L 70.472656 274.53125 L 74.183594 273.460938 L 77.890625 272.160156 L 81.601562 270.589844 L 85.308594 268.707031 L 89.019531 266.46875 L 92.726562 263.824219 L 96.4375 260.730469 L 100.144531 257.128906 L 103.855469 252.972656 L 107.5625 248.210938 L 111.273438 242.800781 L 114.980469 236.703125 L 118.691406 229.882812 L 122.398438 222.316406 L 126.109375 213.996094 L 129.816406 204.921875 L 133.527344 195.109375 L 137.238281 184.601562 L 140.945312 173.445312 L 144.65625 161.71875 L 148.363281 149.515625 L 152.074219 136.953125 L 155.78125 124.15625 L 159.492188 111.285156 L 163.199219 98.496094 L 166.910156 85.96875 L 170.617188 73.882812 L 174.328125 62.433594 L 178.035156 51.796875 L 181.746094 42.15625 L 185.453125 33.683594 L 189.164062 26.523438 L 192.871094 20.808594 L 196.582031 16.648438 L 200.289062 14.121094 L 204 13.273438 L 207.710938 14.121094 L 211.417969 16.648438 L 215.128906 20.808594 L 218.835938 26.523438 L 222.546875 33.683594 L 226.253906 42.15625 L 229.964844 51.796875 L 233.671875 62.433594 L 237.382812 73.882812 L 241.089844 85.96875 L 244.800781 98.496094 L 248.507812 111.285156 L 252.21875 124.15625 L 255.925781 136.953125 L 259.636719 149.515625 L 263.34375 161.71875 L 267.054688 173.445312 L 270.761719 184.601562 L 274.472656 195.109375 L 278.183594 204.921875 L 281.890625 213.996094 L 285.601562 222.316406 L 289.308594 229.882812 L 293.019531 236.703125 L 296.726562 242.800781 L 300.4375 248.210938 L 304.144531 252.972656 L 307.855469 257.128906 L 311.5625 260.730469 L 315.273438 263.824219 L 318.980469 266.46875 L 322.691406 268.707031 L 326.398438 270.589844 L 330.109375 272.160156 L 333.816406 273.460938 L 337.527344 274.53125 L 341.238281 275.40625 L 344.945312 276.113281 L 348.65625 276.683594 L 352.363281 277.140625 L 356.074219 277.503906 L 359.78125 277.789062 L 363.492188 278.011719 L 367.199219 278.1875 L 370.910156 278.320312 L 374.617188 278.421875 L 378.328125 278.5 L 382.035156 278.558594 L 385.746094 278.605469 L 389.453125 278.636719 "/>
<path style=" stroke:none;fill-rule:nonzero;fill:rgb(0%,0%,0%);fill-opacity:0.298039;" d="M 185.453125 33.683594 L 185.824219 32.90625 L 186.195312 32.140625 L 186.566406 31.390625 L 186.9375 30.652344 L 187.308594 29.929688 L 187.679688 29.21875 L 188.050781 28.523438 L 188.421875 27.84375 L 188.792969 27.175781 L 189.164062 26.523438 L 189.535156 25.882812 L 189.90625 25.261719 L 190.277344 24.652344 L 190.648438 24.054688 L 191.019531 23.476562 L 191.390625 22.914062 L 191.761719 22.363281 L 192.132812 21.832031 L 192.5 21.3125 L 192.871094 20.808594 L 193.242188 20.320312 L 193.613281 19.847656 L 193.984375 19.394531 L 194.355469 18.953125 L 194.726562 18.527344 L 195.097656 18.121094 L 195.46875 17.730469 L 195.839844 17.351562 L 196.210938 16.992188 L 196.582031 16.648438 L 196.953125 16.320312 L 197.324219 16.011719 L 197.695312 15.714844 L 198.066406 15.4375 L 198.4375 15.175781 L 198.808594 14.933594 L 199.179688 14.703125 L 199.550781 14.492188 L 199.921875 14.296875 L 200.289062 14.121094 L 200.660156 13.960938 L 201.03125 13.816406 L 201.402344 13.6875 L 201.773438 13.578125 L 202.144531 13.484375 L 202.515625 13.410156 L 202.886719 13.347656 L 203.257812 13.308594 L 203.628906 13.28125 L 204 13.273438 L 204.371094 13.28125 L 204.742188 13.308594 L 205.113281 13.347656 L 205.484375 13.410156 L 205.855469 13.484375 L 206.226562 13.578125 L 206.597656 13.6875 L 206.96875 13.816406 L 207.339844 13.960938 L 207.710938 14.121094 L 208.078125 14.296875 L 208.449219 14.492188 L 208.820312 14.703125 L 209.191406 14.933594 L 209.5625 15.175781 L 209.933594 15.4375 L 210.304688 15.714844 L 210.675781 16.011719 L 211.046875 16.320312 L 211.417969 16.648438 L 211.789062 16.992188 L 212.160156 17.351562 L 212.53125 17.730469 L 212.902344 18.121094 L 213.273438 18.527344 L 213.644531 18.953125 L 214.015625 19.394531 L 214.386719 19.847656 L 214.757812 20.320312 L 215.128906 20.808594 L 215.5 21.3125 L 215.867188 21.832031 L 216.238281 22.363281 L 216.609375 22.914062 L 216.980469 23.476562 L 217.351562 24.054688 L 217.722656 24.652344 L 218.09375 25.261719 L 218.464844 25.882812 L 218.835938 26.523438 L 219.207031 27.175781 L 219.578125 27.84375 L 219.949219 28.523438 L 220.320312 29.21875 L 220.691406 29.929688 L 221.0625 30.652344 L 221.433594 31.390625 L 221.804688 32.140625 L 222.175781 32.90625 L 222.546875 33.683594 L 222.546875 278.726562 L 185.453125 278.726562 Z M 185.453125 33.683594 "/>
<path style=" stroke:none;fill-rule:nonzero;fill:rgb(11.764706%,56.470588%,100%);fill-opacity:0.2;" d="M 21.882812 278.609375 L 30.972656 278.476562 L 40.058594 278.214844 L 49.144531 277.722656 L 58.234375 276.832031 L 67.320312 275.285156 L 76.40625 272.710938 L 85.496094 268.605469 L 94.582031 262.335938 L 103.667969 253.195312 L 112.757812 240.445312 L 121.84375 223.5 L 130.929688 202.054688 L 140.019531 176.289062 L 149.105469 147.027344 L 158.191406 115.789062 L 167.28125 84.734375 L 176.367188 56.46875 L 185.453125 33.683594 L 185.453125 278.726562 L 21.882812 278.726562 Z M 21.882812 278.609375 "/>
<path style=" stroke:none;fill-rule:nonzero;fill:rgb(11.764706%,56.470588%,100%);fill-opacity:0.2;" d="M 222.546875 33.683594 L 231.632812 56.46875 L 240.71875 84.734375 L 249.808594 115.789062 L 258.894531 147.027344 L 267.980469 176.289062 L 277.070312 202.054688 L 286.15625 223.5 L 295.242188 240.445312 L 304.332031 253.195312 L 313.417969 262.335938 L 322.503906 268.605469 L 331.59375 272.710938 L 340.679688 275.285156 L 349.765625 276.832031 L 358.855469 277.722656 L 367.941406 278.214844 L 377.027344 278.476562 L 386.117188 278.609375 L 386.117188 278.726562 L 222.546875 278.726562 Z M 222.546875 33.683594 "/>
<path style="fill:none;stroke-width:1.066978;stroke-linecap:butt;stroke-linejoin:round;stroke:rgb(0%,0%,0%);stroke-opacity:1;stroke-dasharray:4.267913,4.267913;stroke-miterlimit:10;" d="M 185.453125 278.726562 L 185.453125 33.683594 "/>
<path style="fill:none;stroke-width:1.066978;stroke-linecap:butt;stroke-linejoin:round;stroke:rgb(0%,0%,0%);stroke-opacity:1;stroke-dasharray:4.267913,4.267913;stroke-miterlimit:10;" d="M 222.546875 278.726562 L 222.546875 33.683594 "/>
</g>
</svg>
